<svg id="visual" viewBox="0 0 900 600" width="900" height="600" xmlns="http://www.w3.org/2000/svg" xmlns:xlink="http://www.w3.org/1999/xlink" version="1.1"><g stroke-width="1" stroke-linejoin="bevel"><path d="M443.1 304L503.9 373L501.9 304Z" fill="#112e42" stroke="#112e42"></path><path d="M503.9 373L556.7 338L501.9 304Z" fill="#1d4e6b" stroke="#1d4e6b"></path><path d="M386.1 419L508.9 420L503.9 373Z" fill="#112e42" stroke="#112e42"></path><path d="M503.9 373L508.9 420L556.7 338Z" fill="#1d4e6b" stroke="#1d4e6b"></path><path d="M443.1 304L390.1 372L503.9 373Z" fill="#297ea6" stroke="#297ea6"></path><path d="M556.7 338L556.7 278L501.9 304Z" fill="#19435d" stroke="#19435d"></path><path d="M501.9 304L506.9 238L443.1 304Z" fill="#081a28" stroke="#081a28"></path><path d="M556.7 278L506.9 238L501.9 304Z" fill="#112e42" stroke="#112e42"></path><path d="M409.1 235L365.3 294L443.1 304Z" fill="#19435d" stroke="#19435d"></path><path d="M443.1 304L365.3 294L390.1 372Z" fill="#297ea6" stroke="#297ea6"></path><path d="M318.3 415L386.1 419L390.1 372Z" fill="#00101c" stroke="#00101c"></path><path d="M390.1 372L386.1 419L503.9 373Z" fill="#1d4e6b" stroke="#1d4e6b"></path><path d="M506.9 238L409.1 235L443.1 304Z" fill="#246688" stroke="#246688"></path><path d="M315.3 231L330.3 336L365.3 294Z" fill="#112e42" stroke="#112e42"></path><path d="M365.3 294L330.3 336L390.1 372Z" fill="#15384f" stroke="#15384f"></path><path d="M582.7 490L570.7 444L508.9 420Z" fill="#081a28" stroke="#081a28"></path><path d="M508.9 420L570.7 444L556.7 338Z" fill="#246688" stroke="#246688"></path><path d="M655.5 233L579.7 237L556.7 278Z" fill="#1d4e6b" stroke="#1d4e6b"></path><path d="M647.5 351L556.7 278L556.7 338Z" fill="#205a7a" stroke="#205a7a"></path><path d="M556.7 278L579.7 237L506.9 238Z" fill="#205a7a" stroke="#205a7a"></path><path d="M506.9 238L485.9 161L409.1 235Z" fill="#112e42" stroke="#112e42"></path><path d="M330.3 336L318.3 415L390.1 372Z" fill="#205a7a" stroke="#205a7a"></path><path d="M520.9 553L582.7 490L508.9 420Z" fill="#15384f" stroke="#15384f"></path><path d="M570.7 444L615.5 439L556.7 338Z" fill="#277297" stroke="#277297"></path><path d="M615.5 439L647.5 351L556.7 338Z" fill="#19435d" stroke="#19435d"></path><path d="M579.7 237L485.9 161L506.9 238Z" fill="#297ea6" stroke="#297ea6"></path><path d="M485.9 161L430.1 159L409.1 235Z" fill="#19435d" stroke="#19435d"></path><path d="M409.1 235L315.3 231L365.3 294Z" fill="#205a7a" stroke="#205a7a"></path><path d="M439.1 537L508.9 420L386.1 419Z" fill="#205a7a" stroke="#205a7a"></path><path d="M570.7 444L582.7 490L615.5 439Z" fill="#1d4e6b" stroke="#1d4e6b"></path><path d="M300.3 158L315.3 231L409.1 235Z" fill="#19435d" stroke="#19435d"></path><path d="M330.3 336L267.5 382L318.3 415Z" fill="#112e42" stroke="#112e42"></path><path d="M318.3 524L439.1 537L386.1 419Z" fill="#00101c" stroke="#00101c"></path><path d="M224.5 277L267.5 382L330.3 336Z" fill="#081a28" stroke="#081a28"></path><path d="M318.3 415L318.3 524L386.1 419Z" fill="#1d4e6b" stroke="#1d4e6b"></path><path d="M647.5 351L655.5 233L556.7 278Z" fill="#081a28" stroke="#081a28"></path><path d="M579.7 237L592.7 130L485.9 161Z" fill="#1d4e6b" stroke="#1d4e6b"></path><path d="M712.4 425L687.5 328L647.5 351Z" fill="#0c2435" stroke="#0c2435"></path><path d="M647.5 351L687.5 328L655.5 233Z" fill="#15384f" stroke="#15384f"></path><path d="M712.4 425L647.5 351L615.5 439Z" fill="#1d4e6b" stroke="#1d4e6b"></path><path d="M439.1 537L520.9 553L508.9 420Z" fill="#205a7a" stroke="#205a7a"></path><path d="M655.5 233L626.5 182L579.7 237Z" fill="#00101c" stroke="#00101c"></path><path d="M227.5 429L318.3 524L318.3 415Z" fill="#205a7a" stroke="#205a7a"></path><path d="M439.1 537L507.9 600L520.9 553Z" fill="#15384f" stroke="#15384f"></path><path d="M626.5 182L592.7 130L579.7 237Z" fill="#15384f" stroke="#15384f"></path><path d="M485.9 161L400.1 100L430.1 159Z" fill="#205a7a" stroke="#205a7a"></path><path d="M519.9 51L400.1 100L485.9 161Z" fill="#297ea6" stroke="#297ea6"></path><path d="M430.1 159L300.3 158L409.1 235Z" fill="#246688" stroke="#246688"></path><path d="M400.1 100L300.3 158L430.1 159Z" fill="#205a7a" stroke="#205a7a"></path><path d="M315.3 231L224.5 277L330.3 336Z" fill="#0c2435" stroke="#0c2435"></path><path d="M673.5 528L615.5 439L582.7 490Z" fill="#112e42" stroke="#112e42"></path><path d="M673.5 528L712.4 425L615.5 439Z" fill="#1d4e6b" stroke="#1d4e6b"></path><path d="M230.5 252L224.5 277L315.3 231Z" fill="#112e42" stroke="#112e42"></path><path d="M267.5 382L227.5 429L318.3 415Z" fill="#0c2435" stroke="#0c2435"></path><path d="M300.3 158L230.5 252L315.3 231Z" fill="#1d4e6b" stroke="#1d4e6b"></path><path d="M198.6 376L227.5 429L267.5 382Z" fill="#1d4e6b" stroke="#1d4e6b"></path><path d="M433.1 600L507.9 600L439.1 537Z" fill="#00101c" stroke="#00101c"></path><path d="M520.9 553L547.7 600L582.7 490Z" fill="#0c2435" stroke="#0c2435"></path><path d="M344.3 600L433.1 600L439.1 537Z" fill="#15384f" stroke="#15384f"></path><path d="M507.9 600L547.7 600L520.9 553Z" fill="#1d4e6b" stroke="#1d4e6b"></path><path d="M627.5 600L673.5 528L582.7 490Z" fill="#00101c" stroke="#00101c"></path><path d="M224.5 277L198.6 376L267.5 382Z" fill="#081a28" stroke="#081a28"></path><path d="M174.6 424L198.6 376L106.8 327Z" fill="#00101c" stroke="#00101c"></path><path d="M712.4 425L756.4 335L687.5 328Z" fill="#297ea6" stroke="#297ea6"></path><path d="M687.5 328L759.4 304L655.5 233Z" fill="#00101c" stroke="#00101c"></path><path d="M718.4 115L657.5 102L626.5 182Z" fill="#19435d" stroke="#19435d"></path><path d="M657.5 102L592.7 70L592.7 130Z" fill="#15384f" stroke="#15384f"></path><path d="M819.2 400L756.4 335L712.4 425Z" fill="#1d4e6b" stroke="#1d4e6b"></path><path d="M756.4 335L759.4 304L687.5 328Z" fill="#00101c" stroke="#00101c"></path><path d="M240.5 600L344.3 600L318.3 524Z" fill="#246688" stroke="#246688"></path><path d="M318.3 524L344.3 600L439.1 537Z" fill="#19435d" stroke="#19435d"></path><path d="M592.7 70L519.9 51L592.7 130Z" fill="#15384f" stroke="#15384f"></path><path d="M592.7 130L519.9 51L485.9 161Z" fill="#081a28" stroke="#081a28"></path><path d="M657.5 102L592.7 130L626.5 182Z" fill="#19435d" stroke="#19435d"></path><path d="M718.4 115L626.5 182L655.5 233Z" fill="#277297" stroke="#277297"></path><path d="M227.5 429L214.5 497L318.3 524Z" fill="#205a7a" stroke="#205a7a"></path><path d="M174.6 424L214.5 497L227.5 429Z" fill="#15384f" stroke="#15384f"></path><path d="M547.7 600L627.5 600L582.7 490Z" fill="#277297" stroke="#277297"></path><path d="M400.1 100L364.3 54L300.3 158Z" fill="#00101c" stroke="#00101c"></path><path d="M190.6 139L166.6 262L230.5 252Z" fill="#205a7a" stroke="#205a7a"></path><path d="M369.1 0L364.3 54L400.1 100Z" fill="#081a28" stroke="#081a28"></path><path d="M166.6 262L198.6 376L224.5 277Z" fill="#19435d" stroke="#19435d"></path><path d="M198.6 376L174.6 424L227.5 429Z" fill="#081a28" stroke="#081a28"></path><path d="M190.6 139L230.5 252L300.3 158Z" fill="#112e42" stroke="#112e42"></path><path d="M230.5 252L166.6 262L224.5 277Z" fill="#081a28" stroke="#081a28"></path><path d="M801.2 265L773.4 236L759.4 304Z" fill="#1d4e6b" stroke="#1d4e6b"></path><path d="M759.4 304L773.4 236L655.5 233Z" fill="#0c2435" stroke="#0c2435"></path><path d="M773.4 236L718.4 115L655.5 233Z" fill="#277297" stroke="#277297"></path><path d="M657.5 102L639.5 0L592.7 70Z" fill="#15384f" stroke="#15384f"></path><path d="M745.4 540L712.4 425L673.5 528Z" fill="#112e42" stroke="#112e42"></path><path d="M745.4 540L792.2 444L712.4 425Z" fill="#297ea6" stroke="#297ea6"></path><path d="M756.4 335L801.2 265L759.4 304Z" fill="#081a28" stroke="#081a28"></path><path d="M819.2 400L801.2 265L756.4 335Z" fill="#246688" stroke="#246688"></path><path d="M773.4 236L826.2 180L718.4 115Z" fill="#297ea6" stroke="#297ea6"></path><path d="M710.4 600L745.4 540L673.5 528Z" fill="#00101c" stroke="#00101c"></path><path d="M718.4 115L701.4 85L657.5 102Z" fill="#246688" stroke="#246688"></path><path d="M567.7 0L521.9 0L519.9 51Z" fill="#081a28" stroke="#081a28"></path><path d="M231.5 43L209.5 120L300.3 158Z" fill="#205a7a" stroke="#205a7a"></path><path d="M567.7 0L519.9 51L592.7 70Z" fill="#277297" stroke="#277297"></path><path d="M519.9 51L369.1 0L400.1 100Z" fill="#00101c" stroke="#00101c"></path><path d="M209.5 120L190.6 139L300.3 158Z" fill="#15384f" stroke="#15384f"></path><path d="M90.8 232L129.6 286L166.6 262Z" fill="#15384f" stroke="#15384f"></path><path d="M166.6 262L129.6 286L198.6 376Z" fill="#081a28" stroke="#081a28"></path><path d="M190.6 600L240.5 600L214.5 497Z" fill="#1d4e6b" stroke="#1d4e6b"></path><path d="M214.5 497L240.5 600L318.3 524Z" fill="#246688" stroke="#246688"></path><path d="M840.2 491L819.2 400L792.2 444Z" fill="#19435d" stroke="#19435d"></path><path d="M792.2 444L819.2 400L712.4 425Z" fill="#15384f" stroke="#15384f"></path><path d="M639.5 0L567.7 0L592.7 70Z" fill="#246688" stroke="#246688"></path><path d="M627.5 600L710.4 600L673.5 528Z" fill="#246688" stroke="#246688"></path><path d="M521.9 0L369.1 0L519.9 51Z" fill="#00101c" stroke="#00101c"></path><path d="M364.3 54L231.5 43L300.3 158Z" fill="#246688" stroke="#246688"></path><path d="M369.1 0L349.3 0L364.3 54Z" fill="#00101c" stroke="#00101c"></path><path d="M718.4 115L801.2 93L701.4 85Z" fill="#19435d" stroke="#19435d"></path><path d="M801.2 265L826.2 259L773.4 236Z" fill="#15384f" stroke="#15384f"></path><path d="M819.2 400L826.2 259L801.2 265Z" fill="#246688" stroke="#246688"></path><path d="M78.8 346L106.8 327L0 266Z" fill="#081a28" stroke="#081a28"></path><path d="M129.6 286L106.8 327L198.6 376Z" fill="#00101c" stroke="#00101c"></path><path d="M123.6 550L190.6 600L214.5 497Z" fill="#277297" stroke="#277297"></path><path d="M701.4 85L639.5 0L657.5 102Z" fill="#112e42" stroke="#112e42"></path><path d="M209.5 120L145.6 72L190.6 139Z" fill="#277297" stroke="#277297"></path><path d="M90.8 232L106.8 327L129.6 286Z" fill="#112e42" stroke="#112e42"></path><path d="M258.5 0L231.5 43L364.3 54Z" fill="#1d4e6b" stroke="#1d4e6b"></path><path d="M123.6 550L214.5 497L174.6 424Z" fill="#00101c" stroke="#00101c"></path><path d="M826.2 259L826.2 180L773.4 236Z" fill="#297ea6" stroke="#297ea6"></path><path d="M701.4 85L763.4 0L639.5 0Z" fill="#0c2435" stroke="#0c2435"></path><path d="M90.8 232L166.6 262L190.6 139Z" fill="#112e42" stroke="#112e42"></path><path d="M106.8 327L78.8 346L174.6 424Z" fill="#1d4e6b" stroke="#1d4e6b"></path><path d="M73.8 185L90.8 232L190.6 139Z" fill="#297ea6" stroke="#297ea6"></path><path d="M830.2 600L840.2 491L745.4 540Z" fill="#277297" stroke="#277297"></path><path d="M745.4 540L840.2 491L792.2 444Z" fill="#112e42" stroke="#112e42"></path><path d="M819.2 400L900 377L826.2 259Z" fill="#112e42" stroke="#112e42"></path><path d="M826.2 259L900 251L826.2 180Z" fill="#15384f" stroke="#15384f"></path><path d="M349.3 0L258.5 0L364.3 54Z" fill="#297ea6" stroke="#297ea6"></path><path d="M231.5 43L145.6 72L209.5 120Z" fill="#00101c" stroke="#00101c"></path><path d="M114.8 547L123.6 550L174.6 424Z" fill="#277297" stroke="#277297"></path><path d="M826.2 180L801.2 93L718.4 115Z" fill="#205a7a" stroke="#205a7a"></path><path d="M42.8 427L114.8 547L174.6 424Z" fill="#00101c" stroke="#00101c"></path><path d="M123.6 550L88.8 600L190.6 600Z" fill="#112e42" stroke="#112e42"></path><path d="M150.6 0L145.6 72L231.5 43Z" fill="#277297" stroke="#277297"></path><path d="M119.8 91L73.8 185L190.6 139Z" fill="#0c2435" stroke="#0c2435"></path><path d="M0 266L0 361L78.8 346Z" fill="#246688" stroke="#246688"></path><path d="M900 478L900 377L819.2 400Z" fill="#246688" stroke="#246688"></path><path d="M826.2 180L900 175L801.2 93Z" fill="#112e42" stroke="#112e42"></path><path d="M145.6 72L119.8 91L190.6 139Z" fill="#15384f" stroke="#15384f"></path><path d="M900 377L900 267L826.2 259Z" fill="#297ea6" stroke="#297ea6"></path><path d="M900 267L900 251L826.2 259Z" fill="#297ea6" stroke="#297ea6"></path><path d="M0 361L42.8 427L78.8 346Z" fill="#112e42" stroke="#112e42"></path><path d="M78.8 346L42.8 427L174.6 424Z" fill="#1d4e6b" stroke="#1d4e6b"></path><path d="M710.4 600L830.2 600L745.4 540Z" fill="#112e42" stroke="#112e42"></path><path d="M840.2 491L900 478L819.2 400Z" fill="#246688" stroke="#246688"></path><path d="M809.2 0L763.4 0L801.2 93Z" fill="#1d4e6b" stroke="#1d4e6b"></path><path d="M801.2 93L763.4 0L701.4 85Z" fill="#246688" stroke="#246688"></path><path d="M900 493L900 478L840.2 491Z" fill="#081a28" stroke="#081a28"></path><path d="M900 600L900 493L840.2 491Z" fill="#277297" stroke="#277297"></path><path d="M900 251L900 175L826.2 180Z" fill="#0c2435" stroke="#0c2435"></path><path d="M0 507L88.8 600L114.8 547Z" fill="#19435d" stroke="#19435d"></path><path d="M114.8 547L88.8 600L123.6 550Z" fill="#205a7a" stroke="#205a7a"></path><path d="M258.5 0L150.6 0L231.5 43Z" fill="#15384f" stroke="#15384f"></path><path d="M145.6 72L84.8 0L119.8 91Z" fill="#246688" stroke="#246688"></path><path d="M0 203L90.8 232L73.8 185Z" fill="#1d4e6b" stroke="#1d4e6b"></path><path d="M0 266L106.8 327L90.8 232Z" fill="#0c2435" stroke="#0c2435"></path><path d="M42.8 427L0 507L114.8 547Z" fill="#19435d" stroke="#19435d"></path><path d="M0 266L90.8 232L0 203Z" fill="#246688" stroke="#246688"></path><path d="M900 65L809.2 0L801.2 93Z" fill="#1d4e6b" stroke="#1d4e6b"></path><path d="M0 203L73.8 185L0 128Z" fill="#0c2435" stroke="#0c2435"></path><path d="M0 361L0 455L42.8 427Z" fill="#297ea6" stroke="#297ea6"></path><path d="M0 128L73.8 185L119.8 91Z" fill="#15384f" stroke="#15384f"></path><path d="M830.2 600L900 600L840.2 491Z" fill="#246688" stroke="#246688"></path><path d="M0 455L0 507L42.8 427Z" fill="#112e42" stroke="#112e42"></path><path d="M900 175L900 65L801.2 93Z" fill="#081a28" stroke="#081a28"></path><path d="M150.6 0L84.8 0L145.6 72Z" fill="#246688" stroke="#246688"></path><path d="M0 96L0 128L119.8 91Z" fill="#246688" stroke="#246688"></path><path d="M84.8 0L0 96L119.8 91Z" fill="#297ea6" stroke="#297ea6"></path><path d="M0 507L0 600L88.8 600Z" fill="#112e42" stroke="#112e42"></path><path d="M900 65L900 0L809.2 0Z" fill="#297ea6" stroke="#297ea6"></path><path d="M84.8 0L0 0L0 96Z" fill="#112e42" stroke="#112e42"></path></g></svg>